<svg width="24" height="24" viewBox="0 0 24 24" fill="none" xmlns="http://www.w3.org/2000/svg">
<path d="M18.3036 12.8087L17.7537 12.2987L18.3036 12.8087ZM11.2325 5.73764L11.7425 6.28754L11.2325 5.73764ZM21.6609 4.27213L22.4046 4.36939L21.6609 4.27213ZM19.7691 2.38027L19.8663 3.12394L19.7691 2.38027ZM6.4944 12.6504L7.16782 12.9806L6.4944 12.6504ZM11.3908 17.5468L11.0606 16.8734L11.3908 17.5468ZM6.45957 18.6423C6.75246 18.3494 6.75246 17.8745 6.45957 17.5816C6.16667 17.2887 5.6918 17.2887 5.39891 17.5816L6.45957 18.6423ZM2.57048 20.4101C2.27759 20.703 2.27759 21.1778 2.57048 21.4707C2.86337 21.7636 3.33825 21.7636 3.63114 21.4707L2.57048 20.4101ZM9.75028 16.6298L7.41142 14.2909L6.35076 15.3516L8.68962 17.6905L9.75028 16.6298ZM17.7537 12.2987C15.86 14.3404 12.7854 16.0279 11.0606 16.8734L11.7209 18.2202C13.4612 17.3671 16.7568 15.5793 18.8535 13.3187L17.7537 12.2987ZM7.16782 12.9806C8.01336 11.2559 9.70078 8.18118 11.7425 6.28754L10.7225 5.18775C8.46187 7.2844 6.67411 10.5801 5.82097 12.3203L7.16782 12.9806ZM20.9173 4.17487C20.6134 6.49822 19.8061 10.0858 17.7537 12.2987L18.8535 13.3187C21.249 10.7359 22.0961 6.7284 22.4046 4.36939L20.9173 4.17487ZM11.7425 6.28754C13.9554 4.23513 17.543 3.4278 19.8663 3.12394L19.6718 1.63661C17.3128 1.94513 13.3053 2.79224 10.7225 5.18775L11.7425 6.28754ZM22.4046 4.36939C22.6157 2.75552 21.2857 1.42553 19.6718 1.63661L19.8663 3.12394C20.5033 3.04063 21.0006 3.53791 20.9173 4.17487L22.4046 4.36939ZM7.41142 14.2909C7.04824 13.9278 6.95951 13.4055 7.16782 12.9806L5.82097 12.3203C5.31278 13.3569 5.56297 14.5638 6.35076 15.3516L7.41142 14.2909ZM8.68962 17.6905C9.47741 18.4782 10.6843 18.7284 11.7209 18.2202L11.0606 16.8734C10.6357 17.0817 10.1135 16.993 9.75028 16.6298L8.68962 17.6905ZM5.39891 17.5816L2.57048 20.4101L3.63114 21.4707L6.45957 18.6423L5.39891 17.5816Z" fill="white"/>
<path opacity="0.3" d="M6.45942 18.6419C6.75231 18.349 6.75231 17.8741 6.45942 17.5812C6.16652 17.2883 5.69165 17.2883 5.39876 17.5812L6.45942 18.6419ZM2.57033 20.4096C2.27744 20.7025 2.27744 21.1774 2.57033 21.4703C2.86322 21.7632 3.3381 21.7632 3.63099 21.4703L2.57033 20.4096ZM10.596 21.0814L11.3385 20.9753L10.596 21.0814ZM15.7579 17.6165L16.5003 17.5105L15.7579 17.6165ZM2.95922 13.4446L3.06528 12.7022L3.06528 12.7022L2.95922 13.4446ZM6.42404 8.28276L6.31797 9.02522L6.31797 9.02522L6.42404 8.28276ZM5.39876 17.5812L2.57033 20.4096L3.63099 21.4703L6.45942 18.6419L5.39876 17.5812ZM14.9447 17.9347L11.7627 21.1167L12.8234 22.1774L16.0054 18.9954L14.9447 17.9347ZM11.3385 20.9753L10.9142 18.0055L9.42926 18.2176L9.85353 21.1874L11.3385 20.9753ZM14.7326 15.7427L15.0154 17.7226L16.5003 17.5105L16.2175 15.5306L14.7326 15.7427ZM11.7627 21.1167C11.617 21.2624 11.3676 21.1792 11.3385 20.9753L9.85353 21.1874C10.0575 22.615 11.8037 23.1971 12.8234 22.1774L11.7627 21.1167ZM16.0054 18.9954C16.3948 18.6059 16.5782 18.0558 16.5003 17.5105L15.0154 17.7226C15.0265 17.8005 15.0003 17.8791 14.9447 17.9347L16.0054 18.9954ZM5.04518 8.03527L1.8632 11.2173L2.92386 12.2779L6.10584 9.09593L5.04518 8.03527ZM2.85315 14.1871L5.823 14.6114L6.03513 13.1264L3.06528 12.7022L2.85315 14.1871ZM8.51 7.82314L6.53011 7.5403L6.31797 9.02522L8.29787 9.30806L8.51 7.82314ZM1.8632 11.2173C0.843496 12.237 1.42557 13.9832 2.85315 14.1871L3.06528 12.7022C2.86134 12.673 2.77819 12.4236 2.92386 12.2779L1.8632 11.2173ZM6.10584 9.09593C6.16148 9.04029 6.24007 9.01409 6.31797 9.02522L6.53011 7.5403C5.98482 7.4624 5.43467 7.64578 5.04518 8.03527L6.10584 9.09593Z" fill="white"/>
<path opacity="0.3" d="M4.33819 16.5206C4.63108 16.2277 4.63108 15.7528 4.33819 15.4599C4.0453 15.167 3.57042 15.167 3.27753 15.4599L4.33819 16.5206ZM1.86332 16.8741C1.57042 17.167 1.57042 17.6419 1.86332 17.9348C2.15621 18.2277 2.63108 18.2277 2.92398 17.9348L1.86332 16.8741ZM8.58083 20.7632C8.87372 20.4703 8.87372 19.9954 8.58083 19.7025C8.28794 19.4097 7.81306 19.4097 7.52017 19.7025L8.58083 20.7632ZM6.10596 21.1168C5.81307 21.4097 5.81307 21.8845 6.10596 22.1774C6.39885 22.4703 6.87373 22.4703 7.16662 22.1774L6.10596 21.1168ZM3.27753 15.4599L1.86332 16.8741L2.92398 17.9348L4.33819 16.5206L3.27753 15.4599ZM7.52017 19.7025L6.10596 21.1168L7.16662 22.1774L8.58083 20.7632L7.52017 19.7025Z" fill="white"/>
<path opacity="0.3" d="M8.22735 10.1572C7.93446 9.86428 7.45958 9.86428 7.16669 10.1572C6.8738 10.4501 6.8738 10.9249 7.16669 11.2178L8.22735 10.1572ZM12.8235 16.8747C13.1164 17.1676 13.5913 17.1676 13.8842 16.8747C14.1771 16.5818 14.1771 16.1069 13.8842 15.814L12.8235 16.8747ZM7.16669 11.2178L12.8235 16.8747L13.8842 15.814L8.22735 10.1572L7.16669 11.2178Z" fill="white"/>
<path opacity="0.3" d="M13.177 6.9747C12.1031 8.04865 12.1031 9.78985 13.177 10.8638L14.2377 9.80313C13.7495 9.31497 13.7495 8.52352 14.2377 8.03536L13.177 6.9747ZM13.177 10.8638C14.251 11.9377 15.9922 11.9377 17.0661 10.8638L16.0055 9.80313C15.5173 10.2913 14.7259 10.2913 14.2377 9.80313L13.177 10.8638ZM17.0661 10.8638C18.1401 9.78985 18.1401 8.04865 17.0661 6.9747L16.0055 8.03536C16.4936 8.52352 16.4936 9.31498 16.0055 9.80313L17.0661 10.8638ZM17.0661 6.9747C15.9922 5.90076 14.251 5.90076 13.177 6.9747L14.2377 8.03536C14.7259 7.54721 15.5173 7.54721 16.0055 8.03536L17.0661 6.9747Z" fill="white"/>
</svg>
