<svg width="24" height="24" viewBox="0 0 24 24" fill="none" xmlns="http://www.w3.org/2000/svg">
<path d="M14.2525 11.8112L13.8851 11.1573L14.2525 11.8112ZM9.74754 11.8112L10.1149 11.1573L9.74754 11.8112ZM20.2891 5.98149L20.6564 5.32762L20.2891 5.98149ZM20.2891 8.41961L20.6564 9.07348L20.2891 8.41961ZM9.74754 2.58993L9.38018 1.93606L9.74754 2.58993ZM14.2525 2.58993L13.8851 3.2438V3.2438L14.2525 2.58993ZM3.71093 5.98149L4.07829 6.63536L3.71093 5.98149ZM3.71092 8.41961L3.34356 9.07348H3.34356L3.71092 8.41961ZM20.1685 18.0862L20.5359 18.7401H20.5359L20.1685 18.0862ZM14.2525 21.4101L13.8851 20.7562L14.2525 21.4101ZM9.74754 21.4101L9.38018 22.0639L9.74754 21.4101ZM3.9178 18.1347L4.28516 17.4809H4.28516L3.9178 18.1347ZM20.4501 14.9486C20.0802 14.7624 19.6292 14.9113 19.443 15.2813C19.2568 15.6513 19.4057 16.1022 19.7757 16.2884L20.4501 14.9486ZM4.32792 16.3286C4.70338 16.1536 4.86596 15.7075 4.69104 15.332C4.51612 14.9565 4.06994 14.794 3.69447 14.9689L4.32792 16.3286ZM4.07829 6.63536L10.1149 3.2438L9.38018 1.93606L3.34356 5.32762L4.07829 6.63536ZM13.8851 3.2438L19.9217 6.63536L20.6564 5.32762L14.6198 1.93606L13.8851 3.2438ZM19.9217 7.76574L13.8851 11.1573L14.6198 12.465L20.6564 9.07348L19.9217 7.76574ZM10.1149 11.1573L4.07829 7.76574L3.34356 9.07348L9.38018 12.465L10.1149 11.1573ZM13.8851 11.1573C12.7132 11.8157 11.2868 11.8157 10.1149 11.1573L9.38018 12.465C11.0083 13.3798 12.9917 13.3798 14.6198 12.465L13.8851 11.1573ZM19.9217 6.63536C20.3594 6.88128 20.3594 7.51981 19.9217 7.76574L20.6564 9.07348C22.1145 8.25428 22.1145 6.14682 20.6564 5.32762L19.9217 6.63536ZM10.1149 3.2438C11.2868 2.5854 12.7132 2.5854 13.8851 3.2438L14.6198 1.93606C12.9917 1.02131 11.0083 1.02131 9.38018 1.93606L10.1149 3.2438ZM3.34356 5.32762C1.88548 6.14682 1.88548 8.25428 3.34356 9.07348L4.07829 7.76574C3.64057 7.51982 3.64057 6.88128 4.07829 6.63536L3.34356 5.32762ZM19.8011 17.4324L13.8851 20.7562L14.6198 22.0639L20.5359 18.7401L19.8011 17.4324ZM10.1149 20.7562L4.28516 17.4809L3.55043 18.7886L9.38018 22.0639L10.1149 20.7562ZM13.8851 20.7562C12.7132 21.4146 11.2868 21.4146 10.1149 20.7562L9.38018 22.0639C11.0083 22.9787 12.9917 22.9787 14.6198 22.0639L13.8851 20.7562ZM20.5359 18.7401C22.0317 17.8997 21.9833 15.7204 20.4501 14.9486L19.7757 16.2884C20.2351 16.5197 20.2507 17.1798 19.8011 17.4324L20.5359 18.7401ZM4.28516 17.4809C3.82764 17.2238 3.85423 16.5492 4.32792 16.3286L3.69447 14.9689C2.11159 15.7063 2.02916 17.9339 3.55043 18.7886L4.28516 17.4809Z" fill="white"/>
<path opacity="0.3" d="M20.2891 13.3649L20.6564 14.0187L20.2891 13.3649ZM14.2525 16.7564L13.8851 16.1026L14.2525 16.7564ZM9.74754 16.7564L10.1149 16.1026L9.74754 16.7564ZM3.71092 13.3649L3.34356 14.0187H3.34356L3.71092 13.3649ZM20.6564 10.2729C20.2953 10.07 19.8381 10.1983 19.6352 10.5594C19.4323 10.9205 19.5606 11.3777 19.9217 11.5806L20.6564 10.2729ZM4.07829 11.5806C4.43941 11.3777 4.56768 10.9205 4.36479 10.5594C4.16191 10.1983 3.70468 10.07 3.34356 10.2729L4.07829 11.5806ZM19.9217 12.711L13.8851 16.1026L14.6198 17.4103L20.6564 14.0187L19.9217 12.711ZM10.1149 16.1026L4.07829 12.711L3.34356 14.0187L9.38018 17.4103L10.1149 16.1026ZM13.8851 16.1026C12.7132 16.761 11.2868 16.761 10.1149 16.1026L9.38018 17.4103C11.0083 18.3251 12.9917 18.3251 14.6198 17.4103L13.8851 16.1026ZM20.6564 14.0187C22.1145 13.1995 22.1145 11.0921 20.6564 10.2729L19.9217 11.5806C20.3594 11.8266 20.3594 12.4651 19.9217 12.711L20.6564 14.0187ZM4.07829 12.711C3.64057 12.4651 3.64057 11.8266 4.07829 11.5806L3.34356 10.2729C1.88548 11.0921 1.88548 13.1995 3.34356 14.0187L4.07829 12.711Z" fill="white"/>
</svg>
